<?xml version="1.0" encoding="utf-8"?>
<!-- Generator: Adobe Illustrator 18.0.0, SVG Export Plug-In . SVG Version: 6.00 Build 0)  -->
<!DOCTYPE svg PUBLIC "-//W3C//DTD SVG 1.1//EN" "http://www.w3.org/Graphics/SVG/1.1/DTD/svg11.dtd">
<svg version="1.1" id="Layer_1" xmlns="http://www.w3.org/2000/svg" xmlns:xlink="http://www.w3.org/1999/xlink" x="0px" y="0px"
	 viewBox="0 0 901 204" enable-background="new 0 0 901 204" xml:space="preserve">
<polygon fill="#FFFFFF" points="325.7,53.7 325.7,40.9 237.8,40.9 237.8,53.8 304.7,53.8 237,114.5 237,127.9 325.8,127.9 
	325.8,115 258.2,115 "/>
<polygon fill="#FFFFFF" points="354.4,90.7 422,90.7 422,78 354.4,78 354.4,54.9 424,54.9 424,40.9 340.7,40.9 340.7,127.9 
	424,127.9 424,113.9 354.4,113.9 "/>
<polygon fill="#FFFFFF" points="718.7,90.7 786.3,90.7 786.3,78 718.7,78 718.7,54.9 788.3,54.9 788.3,40.9 704.9,40.9 704.9,127.9 
	788.3,127.9 788.3,113.9 718.7,113.9 "/>
<polygon fill="#FFFFFF" points="439.4,40.9 439.4,127.9 452.5,127.9 452.5,57.8 519.5,127.9 534.3,127.9 534.3,40.9 521.1,40.9 
	521.1,109.8 455.8,40.9 "/>
<path fill="#FFFFFF" d="M684.9,46.6c-1.9-2-4.5-3.5-7.8-4.4c-3.5-0.9-8-1.4-13.3-1.4h-72.5v87.1h72.5c5.4,0,9.8-0.5,13.3-1.4
	c3.3-0.9,5.9-2.3,7.8-4.3c1.9-2,3.3-4.8,4.1-8.2c0.9-3.6,1.3-8.2,1.3-13.6v-32c0-5.4-0.4-9.9-1.3-13.5
	C688.2,51.5,686.8,48.7,684.9,46.6z M676.6,100.4c0,5.1-0.9,8.5-2.9,10.5c-2,2-5.2,3-9.8,3h-58.6V54.9h58.6c4.6,0,7.8,1,9.8,3
	c2,2,3,5.5,3,10.6V100.4z"/>
<polygon fill="#FFFFFF" points="806.1,40.9 806.1,127.9 819.2,127.9 819.2,57.8 886.2,127.9 901,127.9 901,40.9 887.8,40.9 
	887.8,109.8 822.4,40.9 "/>
<g>
	<path fill="#33905D" d="M204,186.6c0,9.6-7.8,17.4-17.4,17.4H17.4C7.8,204,0,196.2,0,186.6V17.4C0,7.8,7.8,0,17.4,0h169.2
		c9.6,0,17.4,7.8,17.4,17.4V186.6z"/>
	<polyline fill="none" stroke="#FFFFFF" stroke-width="6.5807" stroke-linejoin="round" stroke-miterlimit="10" points="26.3,29.6 
		66.9,29.6 26,69.1 68.4,69.1 	"/>
	<polyline fill="none" stroke="#FFFFFF" stroke-width="6.5807" stroke-linejoin="round" stroke-miterlimit="10" points="127.7,29.6 
		82.3,29.6 82.3,69.1 127.7,69.1 	"/>
	<polyline fill="none" stroke="#FFFFFF" stroke-width="6.5807" stroke-linejoin="round" stroke-miterlimit="10" points="177,26.3 
		177,68.4 137.5,27.4 137.5,72.4 	"/>
	
		<line fill="none" stroke="#FFFFFF" stroke-width="6.5807" stroke-linejoin="round" stroke-miterlimit="10" x1="81.6" y1="49.4" x2="114.5" y2="49.4"/>
	
		<line fill="none" stroke="#FFFFFF" stroke-width="6.5807" stroke-linejoin="round" stroke-miterlimit="10" x1="81.6" y1="49.4" x2="114.5" y2="49.4"/>
	<polyline fill="none" stroke="#FFFFFF" stroke-width="6.5807" stroke-linejoin="round" stroke-miterlimit="10" points="
		177.7,178.3 137.6,178.3 178.6,138.9 138.2,138.9 	"/>
	<polyline fill="none" stroke="#FFFFFF" stroke-width="6.5807" stroke-linejoin="round" stroke-miterlimit="10" points="25.7,181.6 
		25.7,139.1 65.2,180 65.2,135.6 	"/>
	<g>
		<polyline fill="none" stroke="#FFFFFF" stroke-width="6.5807" stroke-linejoin="round" stroke-miterlimit="10" points="79,178.3 
			124.4,178.3 124.4,138.9 79,138.9 		"/>
		
			<line fill="none" stroke="#FFFFFF" stroke-width="6.5807" stroke-linejoin="round" stroke-miterlimit="10" x1="121.1" y1="158.6" x2="92.1" y2="158.6"/>
		
			<line fill="none" stroke="#FFFFFF" stroke-width="6.5807" stroke-linejoin="round" stroke-miterlimit="10" x1="121.1" y1="158.6" x2="92.1" y2="158.6"/>
	</g>
	<g>
		<polyline fill="none" stroke="#FFFFFF" stroke-width="6.5807" stroke-linejoin="round" stroke-miterlimit="10" points="25.7,80.3 
			25.7,125.7 65.2,125.7 65.2,80.3 		"/>
		
			<line fill="none" stroke="#FFFFFF" stroke-width="6.5807" stroke-linejoin="round" stroke-miterlimit="10" x1="45.4" y1="122.4" x2="45.4" y2="93.4"/>
		
			<line fill="none" stroke="#FFFFFF" stroke-width="6.5807" stroke-linejoin="round" stroke-miterlimit="10" x1="45.4" y1="122.4" x2="45.4" y2="93.4"/>
	</g>
	<g>
		<polyline fill="none" stroke="#FFFFFF" stroke-width="6.5807" stroke-linejoin="round" stroke-miterlimit="10" points="177,126.3 
			177,80.9 137.5,80.9 137.5,126.3 		"/>
		
			<line fill="none" stroke="#FFFFFF" stroke-width="6.5807" stroke-linejoin="round" stroke-miterlimit="10" x1="157.3" y1="84.2" x2="157.3" y2="113.2"/>
		
			<line fill="none" stroke="#FFFFFF" stroke-width="6.5807" stroke-linejoin="round" stroke-miterlimit="10" x1="157.3" y1="84.2" x2="157.3" y2="113.2"/>
	</g>
</g>
<g opacity="0.5">
	<path fill="#FFFFFF" d="M370.2,179.9l-7.5-20.9l-7.7,20.9h-5.9l-10.3-28.1h6.3l7.2,21.5l7.7-21.5h5.5l7.5,21.6l7.4-21.6h6.3
		l-10.5,28.1H370.2z"/>
	<path fill="#FFFFFF" d="M405.9,179.9v-28.1h26.9v5.5h-21.5v6.2h20.8v4.5h-20.8v6.2h21.5v5.5H405.9z"/>
	<path fill="#FFFFFF" d="M453.5,179.9v-28.1h22.3c1.5,0,2.7,0.1,3.7,0.3c1,0.2,1.8,0.6,2.4,1.2c0.6,0.5,1.1,1.3,1.3,2.2
		c0.3,0.9,0.4,2.1,0.4,3.5v1.8c0,2.7-1.2,4.2-3.7,4.6c1.2,0.2,2.3,0.7,3.1,1.5c0.8,0.8,1.3,2.1,1.3,3.8v1.8c0,1.4-0.2,2.6-0.5,3.6
		c-0.3,1-0.8,1.7-1.5,2.3c-0.7,0.6-1.6,1-2.7,1.2c-1.1,0.2-2.4,0.3-3.9,0.3H453.5z M478.3,159.8c0-0.9-0.2-1.5-0.6-1.9
		c-0.4-0.4-1-0.5-1.9-0.5H459v6.1h16.9c0.9,0,1.5-0.2,1.9-0.6c0.4-0.4,0.6-1.1,0.6-2V159.8z M479,170.7c0-1-0.2-1.7-0.6-2.2
		c-0.4-0.4-1.2-0.6-2.3-0.6H459v6.4h16.9c1.2,0,2.1-0.2,2.5-0.6c0.4-0.4,0.6-1.1,0.6-2V170.7z"/>
	<path fill="#FFFFFF" d="M534.6,179.9v-28.1h23.6c1.7,0,3.1,0.1,4.3,0.4c1.1,0.3,2,0.8,2.7,1.5c0.7,0.7,1.1,1.7,1.4,2.8
		c0.3,1.2,0.4,2.6,0.4,4.3v9.9c0,1.7-0.1,3.2-0.4,4.3c-0.3,1.2-0.8,2.1-1.4,2.8c-0.7,0.7-1.6,1.2-2.7,1.5c-1.1,0.3-2.5,0.4-4.3,0.4
		H534.6z M561.5,161c0-1.4-0.2-2.3-0.7-2.8c-0.5-0.5-1.3-0.8-2.6-0.8h-18.1v17h18.1c1.3,0,2.1-0.2,2.6-0.7c0.5-0.5,0.7-1.4,0.7-2.8
		V161z"/>
	<path fill="#FFFFFF" d="M588.1,179.9v-28.1H615v5.5h-21.5v6.2h20.8v4.5h-20.8v6.2H615v5.5H588.1z"/>
	<path fill="#FFFFFF" d="M664.6,171.8c0,1.5-0.2,2.8-0.5,3.8c-0.3,1-0.9,1.9-1.6,2.5c-0.7,0.6-1.7,1.1-2.8,1.4
		c-1.2,0.3-2.6,0.4-4.2,0.4h-19.8l0.4-5.5h19.1c0.7,0,1.4,0,1.9-0.1c0.5-0.1,0.9-0.3,1.2-0.5c0.3-0.2,0.5-0.6,0.6-1
		c0.1-0.4,0.2-0.9,0.2-1.5c0-1.2-0.3-2-0.8-2.4c-0.5-0.4-1.5-0.7-2.9-0.7h-11.4c-1.7,0-3.1-0.1-4.2-0.4c-1.1-0.3-2-0.8-2.7-1.4
		c-0.7-0.6-1.2-1.4-1.5-2.4c-0.3-1-0.4-2.1-0.4-3.3v-0.9c0-1.4,0.1-2.6,0.4-3.6c0.3-1,0.8-1.8,1.5-2.4c0.7-0.6,1.6-1.1,2.8-1.4
		c1.2-0.3,2.6-0.4,4.3-0.4h19.7c-0.1,0.9-0.2,1.9-0.3,2.8c-0.1,0.9-0.2,1.8-0.4,2.8h-19c-1.4,0-2.3,0.2-2.8,0.7
		c-0.5,0.5-0.7,1.3-0.7,2.4c0,1.1,0.2,1.9,0.7,2.4c0.5,0.5,1.4,0.7,2.8,0.7h11.2c1.7,0,3.2,0.1,4.4,0.4c1.2,0.3,2.2,0.7,2.9,1.3
		c0.7,0.6,1.3,1.4,1.6,2.3c0.3,0.9,0.5,2,0.5,3.2V171.8z"/>
	<path fill="#FFFFFF" d="M685.2,179.9v-28.1h5.5v28.1H685.2z"/>
	<path fill="#FFFFFF" d="M738.2,179.9l-0.2-3.5c-0.1,0.4-0.3,0.8-0.6,1.2c-0.3,0.4-0.7,0.8-1.1,1.1c-0.4,0.3-1,0.6-1.6,0.8
		c-0.6,0.2-1.3,0.3-2.1,0.3h-11.9c-1.7,0-3.2-0.1-4.3-0.4c-1.1-0.3-2-0.8-2.7-1.5c-0.7-0.7-1.1-1.6-1.4-2.8
		c-0.3-1.2-0.4-2.6-0.4-4.4v-9.9c0-1.7,0.1-3.1,0.4-4.3c0.3-1.2,0.7-2.1,1.4-2.8c0.7-0.7,1.5-1.2,2.7-1.5c1.1-0.3,2.6-0.5,4.3-0.5
		h14.2c1,0,1.9,0.1,2.7,0.4c0.8,0.3,1.4,0.6,2,1.1c0.5,0.4,1,0.9,1.3,1.3c0.3,0.5,0.6,0.9,0.7,1.3l-3.5,3.6c-0.3-0.5-0.7-1-1.2-1.5
		c-0.5-0.4-1.3-0.7-2.4-0.7h-13.8c-1.3,0-2.1,0.2-2.6,0.7c-0.5,0.5-0.7,1.4-0.7,2.8v9c0,1,0,1.7,0.1,2.3c0.1,0.6,0.3,1,0.5,1.3
		c0.3,0.3,0.6,0.5,1,0.6c0.4,0.1,1,0.1,1.6,0.1h12.8c1.5,0,2.6-0.2,3.2-0.7c0.6-0.4,0.9-1.1,0.9-2v-3.6h-10.5v-4.6h15.7v16.3H738.2z
		"/>
	<path fill="#FFFFFF" d="M788.9,179.9l-19.8-20.7v20.7h-5.3v-28.1h5.9l19.2,20.3v-20.3h5.3v28.1H788.9z"/>
</g>
</svg>
