<?xml version="1.0" encoding="utf-8"?>
<!-- Generator: Adobe Illustrator 18.0.0, SVG Export Plug-In . SVG Version: 6.00 Build 0)  -->
<!DOCTYPE svg PUBLIC "-//W3C//DTD SVG 1.1//EN" "http://www.w3.org/Graphics/SVG/1.1/DTD/svg11.dtd">
<svg version="1.1" id="Layer_1" xmlns="http://www.w3.org/2000/svg" xmlns:xlink="http://www.w3.org/1999/xlink" x="0px" y="0px"
	 viewBox="0 0 901 204" enable-background="new 0 0 901 204" xml:space="preserve">
<polygon fill="#33905D" points="325.8,54.7 325.8,41.8 237.9,41.8 237.9,54.7 304.8,54.7 237.1,115.5 237.1,128.9 325.9,128.9 
	325.9,115.9 258.3,115.9 "/>
<polygon fill="#33905D" points="354.5,91.6 422.1,91.6 422.1,78.9 354.5,78.9 354.5,55.8 424.1,55.8 424.1,41.8 340.8,41.8 
	340.8,128.9 424.1,128.9 424.1,114.9 354.5,114.9 "/>
<polygon fill="#33905D" points="718.8,91.6 786.4,91.6 786.4,78.9 718.8,78.9 718.8,55.8 788.4,55.8 788.4,41.8 705,41.8 705,128.9 
	788.4,128.9 788.4,114.9 718.8,114.9 "/>
<polygon fill="#33905D" points="439.5,41.8 439.5,128.9 452.6,128.9 452.6,58.8 519.6,128.9 534.4,128.9 534.4,41.8 521.2,41.8 
	521.2,110.7 455.8,41.8 "/>
<path fill="#33905D" d="M685,47.6c-1.9-2-4.5-3.5-7.8-4.4c-3.5-0.9-8-1.4-13.3-1.4h-72.5v87.1h72.5c5.4,0,9.8-0.5,13.3-1.4
	c3.3-0.9,5.9-2.3,7.8-4.3c1.9-2,3.3-4.8,4.1-8.2c0.9-3.6,1.3-8.2,1.3-13.6v-32c0-5.4-0.4-9.9-1.3-13.5
	C688.3,52.4,686.9,49.6,685,47.6z M676.7,101.4c0,5.1-0.9,8.5-2.9,10.5c-2,2-5.2,3-9.8,3h-58.6V55.8H664c4.6,0,7.8,1,9.8,3
	c2,2,3,5.5,3,10.6V101.4z"/>
<polygon fill="#33905D" points="806.2,41.8 806.2,128.9 819.3,128.9 819.3,58.8 886.3,128.9 901.1,128.9 901.1,41.8 887.9,41.8 
	887.9,110.7 822.5,41.8 "/>
<g>
	<path fill="#33905D" d="M204.1,187.5c0,9.6-7.8,17.4-17.4,17.4H17.5c-9.6,0-17.4-7.8-17.4-17.4V18.3c0-9.6,7.8-17.4,17.4-17.4
		h169.2c9.6,0,17.4,7.8,17.4,17.4V187.5z"/>
	<polyline fill="none" stroke="#FFFFFF" stroke-width="6.5807" stroke-linejoin="round" stroke-miterlimit="10" points="26.4,30.5 
		67,30.5 26.1,70 68.5,70 	"/>
	<polyline fill="none" stroke="#FFFFFF" stroke-width="6.5807" stroke-linejoin="round" stroke-miterlimit="10" points="127.8,30.5 
		82.4,30.5 82.4,70 127.8,70 	"/>
	<polyline fill="none" stroke="#FFFFFF" stroke-width="6.5807" stroke-linejoin="round" stroke-miterlimit="10" points="177.1,27.2 
		177.1,69.3 137.6,28.4 137.6,73.3 	"/>
	
		<line fill="none" stroke="#FFFFFF" stroke-width="6.5807" stroke-linejoin="round" stroke-miterlimit="10" x1="81.7" y1="50.3" x2="114.6" y2="50.3"/>
	
		<line fill="none" stroke="#FFFFFF" stroke-width="6.5807" stroke-linejoin="round" stroke-miterlimit="10" x1="81.7" y1="50.3" x2="114.6" y2="50.3"/>
	<polyline fill="none" stroke="#FFFFFF" stroke-width="6.5807" stroke-linejoin="round" stroke-miterlimit="10" points="
		177.8,179.3 137.7,179.3 178.7,139.8 138.3,139.8 	"/>
	<polyline fill="none" stroke="#FFFFFF" stroke-width="6.5807" stroke-linejoin="round" stroke-miterlimit="10" points="25.8,182.6 
		25.8,140 65.2,181 65.2,136.5 	"/>
	<g>
		<polyline fill="none" stroke="#FFFFFF" stroke-width="6.5807" stroke-linejoin="round" stroke-miterlimit="10" points="
			79.1,179.3 124.5,179.3 124.5,139.8 79.1,139.8 		"/>
		
			<line fill="none" stroke="#FFFFFF" stroke-width="6.5807" stroke-linejoin="round" stroke-miterlimit="10" x1="121.2" y1="159.5" x2="92.2" y2="159.5"/>
		
			<line fill="none" stroke="#FFFFFF" stroke-width="6.5807" stroke-linejoin="round" stroke-miterlimit="10" x1="121.2" y1="159.5" x2="92.2" y2="159.5"/>
	</g>
	<g>
		<polyline fill="none" stroke="#FFFFFF" stroke-width="6.5807" stroke-linejoin="round" stroke-miterlimit="10" points="25.8,81.2 
			25.8,126.6 65.2,126.6 65.2,81.2 		"/>
		
			<line fill="none" stroke="#FFFFFF" stroke-width="6.5807" stroke-linejoin="round" stroke-miterlimit="10" x1="45.5" y1="123.3" x2="45.5" y2="94.4"/>
		
			<line fill="none" stroke="#FFFFFF" stroke-width="6.5807" stroke-linejoin="round" stroke-miterlimit="10" x1="45.5" y1="123.3" x2="45.5" y2="94.4"/>
	</g>
	<g>
		<polyline fill="none" stroke="#FFFFFF" stroke-width="6.5807" stroke-linejoin="round" stroke-miterlimit="10" points="
			177.1,127.3 177.1,81.9 137.6,81.9 137.6,127.3 		"/>
		
			<line fill="none" stroke="#FFFFFF" stroke-width="6.5807" stroke-linejoin="round" stroke-miterlimit="10" x1="157.4" y1="85.2" x2="157.4" y2="114.1"/>
		
			<line fill="none" stroke="#FFFFFF" stroke-width="6.5807" stroke-linejoin="round" stroke-miterlimit="10" x1="157.4" y1="85.2" x2="157.4" y2="114.1"/>
	</g>
</g>
<g opacity="0.5">
	<path fill="#878787" d="M370.3,180.8l-7.5-20.9l-7.7,20.9h-5.9l-10.3-28.1h6.3l7.2,21.5l7.7-21.5h5.5l7.5,21.6l7.4-21.6h6.3
		l-10.5,28.1H370.3z"/>
	<path fill="#878787" d="M406,180.8v-28.1H433v5.5h-21.5v6.2h20.8v4.5h-20.8v6.2H433v5.5H406z"/>
	<path fill="#878787" d="M453.6,180.8v-28.1H476c1.5,0,2.7,0.1,3.7,0.3c1,0.2,1.8,0.6,2.4,1.2c0.6,0.5,1.1,1.3,1.3,2.2
		c0.3,0.9,0.4,2.1,0.4,3.5v1.8c0,2.7-1.2,4.2-3.7,4.6c1.2,0.2,2.3,0.7,3.1,1.5c0.8,0.8,1.3,2.1,1.3,3.8v1.8c0,1.4-0.2,2.6-0.5,3.6
		c-0.3,1-0.8,1.7-1.5,2.3c-0.7,0.6-1.6,1-2.7,1.2c-1.1,0.2-2.4,0.3-3.9,0.3H453.6z M478.4,160.7c0-0.9-0.2-1.5-0.6-1.9
		c-0.4-0.4-1-0.5-1.9-0.5h-16.9v6.1H476c0.9,0,1.5-0.2,1.9-0.6c0.4-0.4,0.6-1.1,0.6-2V160.7z M479.1,171.7c0-1-0.2-1.7-0.6-2.2
		c-0.4-0.4-1.2-0.6-2.3-0.6h-17.1v6.4H476c1.2,0,2.1-0.2,2.5-0.6c0.4-0.4,0.6-1.1,0.6-2V171.7z"/>
	<path fill="#878787" d="M534.7,180.8v-28.1h23.6c1.7,0,3.1,0.1,4.3,0.4c1.1,0.3,2,0.8,2.7,1.5c0.7,0.7,1.1,1.7,1.4,2.8
		c0.3,1.2,0.4,2.6,0.4,4.3v9.9c0,1.7-0.1,3.2-0.4,4.3c-0.3,1.2-0.8,2.1-1.4,2.8c-0.7,0.7-1.6,1.2-2.7,1.5c-1.1,0.3-2.5,0.4-4.3,0.4
		H534.7z M561.6,161.9c0-1.4-0.2-2.3-0.7-2.8c-0.5-0.5-1.3-0.8-2.6-0.8h-18.1v17h18.1c1.3,0,2.1-0.2,2.6-0.7
		c0.5-0.5,0.7-1.4,0.7-2.8V161.9z"/>
	<path fill="#878787" d="M588.2,180.8v-28.1h26.9v5.5h-21.5v6.2h20.8v4.5h-20.8v6.2h21.5v5.5H588.2z"/>
	<path fill="#878787" d="M664.7,172.7c0,1.5-0.2,2.8-0.5,3.8c-0.3,1-0.9,1.9-1.6,2.5c-0.7,0.6-1.7,1.1-2.8,1.4
		c-1.2,0.3-2.6,0.4-4.2,0.4h-19.8l0.4-5.5h19.1c0.7,0,1.4,0,1.9-0.1c0.5-0.1,0.9-0.3,1.2-0.5c0.3-0.2,0.5-0.6,0.6-1
		c0.1-0.4,0.2-0.9,0.2-1.5c0-1.2-0.3-2-0.8-2.4c-0.5-0.4-1.5-0.7-2.9-0.7h-11.4c-1.7,0-3.1-0.1-4.2-0.4c-1.1-0.3-2-0.8-2.7-1.4
		c-0.7-0.6-1.2-1.4-1.5-2.4c-0.3-1-0.4-2.1-0.4-3.3v-0.9c0-1.4,0.1-2.6,0.4-3.6c0.3-1,0.8-1.8,1.5-2.4c0.7-0.6,1.6-1.1,2.8-1.4
		c1.2-0.3,2.6-0.4,4.3-0.4h19.7c-0.1,0.9-0.2,1.9-0.3,2.8c-0.1,0.9-0.2,1.8-0.4,2.8h-19c-1.4,0-2.3,0.2-2.8,0.7
		c-0.5,0.5-0.7,1.3-0.7,2.4c0,1.1,0.2,1.9,0.7,2.4c0.5,0.5,1.4,0.7,2.8,0.7h11.2c1.7,0,3.2,0.1,4.4,0.4c1.2,0.3,2.2,0.7,2.9,1.3
		c0.7,0.6,1.3,1.4,1.6,2.3c0.3,0.9,0.5,2,0.5,3.2V172.7z"/>
	<path fill="#878787" d="M685.3,180.8v-28.1h5.5v28.1H685.3z"/>
	<path fill="#878787" d="M738.3,180.8l-0.2-3.5c-0.1,0.4-0.3,0.8-0.6,1.2c-0.3,0.4-0.7,0.8-1.1,1.1c-0.4,0.3-1,0.6-1.6,0.8
		c-0.6,0.2-1.3,0.3-2.1,0.3h-11.9c-1.7,0-3.2-0.1-4.3-0.4c-1.1-0.3-2-0.8-2.7-1.5c-0.7-0.7-1.1-1.6-1.4-2.8
		c-0.3-1.2-0.4-2.6-0.4-4.4v-9.9c0-1.7,0.1-3.1,0.4-4.3c0.3-1.2,0.7-2.1,1.4-2.8c0.7-0.7,1.5-1.2,2.7-1.5c1.1-0.3,2.6-0.5,4.3-0.5
		H735c1,0,1.9,0.1,2.7,0.4c0.8,0.3,1.4,0.6,2,1.1c0.5,0.4,1,0.9,1.3,1.3c0.3,0.5,0.6,0.9,0.7,1.3l-3.5,3.6c-0.3-0.5-0.7-1-1.2-1.5
		c-0.5-0.4-1.3-0.7-2.4-0.7h-13.8c-1.3,0-2.1,0.2-2.6,0.7c-0.5,0.5-0.7,1.4-0.7,2.8v9c0,1,0,1.7,0.1,2.3c0.1,0.6,0.3,1,0.5,1.3
		c0.3,0.3,0.6,0.5,1,0.6c0.4,0.1,1,0.1,1.6,0.1h12.8c1.5,0,2.6-0.2,3.2-0.7c0.6-0.4,0.9-1.1,0.9-2v-3.6h-10.5v-4.6h15.7v16.3H738.3z
		"/>
	<path fill="#878787" d="M789,180.8l-19.8-20.7v20.7h-5.3v-28.1h5.9l19.2,20.3v-20.3h5.3v28.1H789z"/>
</g>
</svg>
